<?xml version="1.0" encoding="UTF-8"?>
<svg xmlns="http://www.w3.org/2000/svg" xmlns:xlink="http://www.w3.org/1999/xlink" width="px" height="px" viewBox="0 0 75 75" version="1.1">
<g id="surface1">
<path style=" stroke:none;fill-rule:nonzero;fill:rgb(0%,51.372549%,100%);fill-opacity:1;" d="M 32.699219 58.125 C 31.5 58.949219 30.75 59.476562 30.300781 60.449219 C 29.550781 62.175781 30.074219 64.949219 31.875 65.699219 C 33.824219 66.523438 35.851562 65.699219 36.824219 63.898438 C 37.5 62.699219 37.800781 61.351562 37.351562 60 C 37.125 59.25 36.75 58.949219 36.601562 57.976562 C 36.449219 57.226562 36.523438 56.625 36.601562 56.175781 C 35.699219 56.550781 34.273438 57.074219 32.699219 58.125 Z M 47.476562 58.125 C 46.273438 58.949219 45.523438 59.476562 45.074219 60.449219 C 44.324219 62.175781 44.851562 64.949219 46.648438 65.699219 C 48.601562 66.523438 50.625 65.699219 51.601562 63.898438 C 52.273438 62.699219 52.574219 61.351562 52.125 60 C 51.898438 59.25 51.523438 58.949219 51.375 57.976562 C 51.226562 57.226562 51.300781 56.625 51.375 56.175781 C 50.476562 56.550781 49.050781 57.074219 47.476562 58.125 Z M 47.476562 58.125 "/>
<path style=" stroke:none;fill-rule:nonzero;fill:rgb(73.72549%,73.72549%,73.72549%);fill-opacity:1;" d="M 69.898438 38.023438 C 69.898438 31.726562 65.324219 26.550781 59.324219 25.574219 C 59.324219 25.273438 59.398438 24.898438 59.398438 24.601562 C 59.398438 18.824219 54.75 14.175781 48.976562 14.175781 C 47.398438 14.175781 45.824219 14.550781 44.476562 15.226562 C 41.925781 11.476562 37.574219 8.925781 32.625 8.925781 C 25.125 8.925781 18.898438 14.773438 18.375 22.125 C 10.949219 22.648438 5.101562 28.875 5.101562 36.449219 C 5.101562 44.398438 11.550781 50.773438 19.425781 50.773438 L 57.226562 50.773438 C 64.199219 50.625 69.898438 45 69.898438 38.023438 "/>
<path style=" stroke:none;fill-rule:nonzero;fill:rgb(0%,51.372549%,100%);fill-opacity:1;" d="M 17.925781 58.125 C 16.726562 58.949219 15.976562 59.476562 15.523438 60.449219 C 14.773438 62.175781 15.300781 64.949219 17.101562 65.699219 C 19.050781 66.523438 21.074219 65.699219 22.050781 63.898438 C 22.726562 62.699219 23.023438 61.351562 22.574219 60 C 22.351562 59.25 21.976562 58.949219 21.824219 57.976562 C 21.675781 57.226562 21.75 56.625 21.824219 56.175781 C 20.925781 56.550781 19.5 57.074219 17.925781 58.125 Z M 17.925781 58.125 "/>
</g>
</svg>
