<svg enable-background="new 0 0 100 100" viewBox="0 0 100 100" xmlns="http://www.w3.org/2000/svg"><path d="m90.7 39.5-7.3 3.3 5.3 6.1-8.1-.1 2.2 7.7-7.2-3.6-1.4 8-4.9-6.5-4.8 6.5-1.5-8-7.2 3.6 2.2-7.7-8.1.1 5.3-6.1-7.3-3.3 7.3-3.3-5.3-6.1 8.1.1-2.2-7.7 7.2 3.6 1.5-8 4.8 6.5 4.9-6.5 1.4 8 7.2-3.6-2.2 7.7 8.1-.1-5.3 6.1z" fill="#ffd400"/><ellipse cx="69.5" cy="39.9" fill="#fff" rx="13" ry="13.2"/><ellipse cx="69.5" cy="39.9" fill="#ffd400" rx="12" ry="12.2"/><path d="m79.2 48.4c0-.4.1-.9.1-1.3 0-7.7-6.2-13.9-13.9-13.9-2.1 0-4.2.5-6 1.4-3.4-5-9.2-8.4-15.8-8.4-10 0-18.3 7.8-19 17.6-9.9.7-17.7 9-17.7 19.1 0 10.6 8.6 19.1 19.1 19.1h50.6c9.3 0 16.9-7.6 16.9-16.9-.2-8.5-6.3-15.4-14.3-16.7z" fill="#e6e6e6"/></svg>