<?xml version="1.0" encoding="UTF-8"?>
<svg xmlns="http://www.w3.org/2000/svg" xmlns:xlink="http://www.w3.org/1999/xlink" width="px" height="px" viewBox="0 0 75 75" version="1.1">
<g id="surface1">
<path style=" stroke:none;fill-rule:nonzero;fill:rgb(100%,83.137255%,0%);fill-opacity:1;" d="M 68.023438 29.625 L 62.550781 32.101562 L 66.523438 36.675781 L 60.449219 36.601562 L 62.101562 42.375 L 56.699219 39.675781 L 55.648438 45.675781 L 51.976562 40.800781 L 48.375 45.675781 L 47.25 39.675781 L 41.851562 42.375 L 43.5 36.601562 L 37.425781 36.675781 L 41.398438 32.101562 L 35.925781 29.625 L 41.398438 27.148438 L 37.425781 22.574219 L 43.5 22.648438 L 41.851562 16.875 L 47.25 19.574219 L 48.375 13.574219 L 51.976562 18.449219 L 55.648438 13.574219 L 56.699219 19.574219 L 62.101562 16.875 L 60.449219 22.648438 L 66.523438 22.574219 L 62.550781 27.148438 Z M 68.023438 29.625 "/>
<path style=" stroke:none;fill-rule:nonzero;fill:rgb(100%,100%,100%);fill-opacity:1;" d="M 61.875 29.925781 C 61.875 24.457031 57.511719 20.023438 52.125 20.023438 C 46.738281 20.023438 42.375 24.457031 42.375 29.925781 C 42.375 35.394531 46.738281 39.824219 52.125 39.824219 C 57.511719 39.824219 61.875 35.394531 61.875 29.925781 Z M 61.875 29.925781 "/>
<path style=" stroke:none;fill-rule:nonzero;fill:rgb(100%,83.137255%,0%);fill-opacity:1;" d="M 61.125 29.925781 C 61.125 24.871094 57.09375 20.773438 52.125 20.773438 C 47.15625 20.773438 43.125 24.871094 43.125 29.925781 C 43.125 34.976562 47.15625 39.074219 52.125 39.074219 C 57.09375 39.074219 61.125 34.976562 61.125 29.925781 Z M 61.125 29.925781 "/>
<path style=" stroke:none;fill-rule:nonzero;fill:rgb(90.196078%,90.196078%,90.196078%);fill-opacity:1;" d="M 59.398438 36.300781 C 59.398438 36 59.476562 35.625 59.476562 35.324219 C 59.476562 29.550781 54.824219 24.898438 49.050781 24.898438 C 47.476562 24.898438 45.898438 25.273438 44.550781 25.949219 C 42 22.199219 37.648438 19.648438 32.699219 19.648438 C 25.199219 19.648438 18.976562 25.5 18.449219 32.851562 C 11.023438 33.375 5.175781 39.601562 5.175781 47.175781 C 5.175781 55.125 11.625 61.5 19.5 61.5 L 57.449219 61.5 C 64.425781 61.5 70.125 55.800781 70.125 48.824219 C 69.976562 42.449219 65.398438 37.273438 59.398438 36.300781 Z M 59.398438 36.300781 "/>
</g>
</svg>
