<svg enable-background="new 0 0 100 100" viewBox="0 0 100 100" xmlns="http://www.w3.org/2000/svg"><path d="m43.6 77.5c-1.6 1.1-2.6 1.8-3.2 3.1-1 2.3-.3 6 2.1 7 2.6 1.1 5.3 0 6.6-2.4.9-1.6 1.3-3.4.7-5.2-.3-1-.8-1.4-1-2.7-.2-1-.1-1.8 0-2.4-1.2.5-3.1 1.2-5.2 2.6zm19.7 0c-1.6 1.1-2.6 1.8-3.2 3.1-1 2.3-.3 6 2.1 7 2.6 1.1 5.3 0 6.6-2.4.9-1.6 1.3-3.4.7-5.2-.3-1-.8-1.4-1-2.7-.2-1-.1-1.8 0-2.4-1.2.5-3.1 1.2-5.2 2.6z" fill="#0083ff"/><path d="m93.2 50.7c0-8.4-6.1-15.3-14.1-16.6 0-.4.1-.9.1-1.3 0-7.7-6.2-13.9-13.9-13.9-2.1 0-4.2.5-6 1.4-3.4-5-9.2-8.4-15.8-8.4-10 0-18.3 7.8-19 17.6-9.9.7-17.7 9-17.7 19.1 0 10.6 8.6 19.1 19.1 19.1h50.4c9.3-.2 16.9-7.7 16.9-17" fill="#bcbcbc"/><path d="m23.9 77.5c-1.6 1.1-2.6 1.8-3.2 3.1-1 2.3-.3 6 2.1 7 2.6 1.1 5.3 0 6.6-2.4.9-1.6 1.3-3.4.7-5.2-.3-1-.8-1.4-1-2.7-.2-1-.1-1.8 0-2.4-1.2.5-3.1 1.2-5.2 2.6z" fill="#0083ff"/></svg>