<svg enable-background="new 0 0 512 405" viewBox="0 0 512 405" xmlns="http://www.w3.org/2000/svg" xmlns:xlink="http://www.w3.org/1999/xlink"><clipPath id="a"><path d="m95.3-127.2 456.1 302.5-177.7 446.2-513.6-235.1z"/></clipPath><clipPath id="b"><path d="m129.4-98.5 456.1 302.5-177.7 446.3-513.6-235.2z"/></clipPath><clipPath id="c"><path d="m48.3-105.4h564.9v564.9h-564.9z" transform="matrix(.757 -.6534 .6534 .757 -35.325 259.1449)"/></clipPath><clipPath id="d"><path d="m-105.5 32.1h564.9v564.9h-564.9z" transform="matrix(.4163 -.9092 .9092 .4163 -182.6771 344.4328)"/></clipPath><clipPath id="e"><path d="m-105.5 32.1h564.9v564.9h-564.9z" transform="matrix(.4163 -.9092 .9092 .4163 -182.6771 344.4328)"/></clipPath><clipPath id="f"><path d="m-105.5 32.1h564.9v564.9h-564.9z" transform="matrix(.4163 -.9092 .9092 .4163 -182.6771 344.4328)"/></clipPath><clipPath id="g"><path d="m-105.5 32.1h564.9v564.9h-564.9z" transform="matrix(.4163 -.9092 .9092 .4163 -182.6771 344.4328)"/></clipPath><clipPath id="h"><path d="m-123.1 29.6h577v584.8h-577z" transform="matrix(.4163 -.9092 .9092 .4163 -196.1915 338.3354)"/></clipPath><clipPath id="i"><path d="m-94.7 24.2h564.9v564.9h-564.9z" transform="matrix(.4163 -.9092 .9092 .4163 -169.1917 349.6822)"/></clipPath><path clip-path="url(#a)" d="m95.4 238.3 343.6 100.7c1 .5 6.4.7 11.3-3.8 13.7-15.7 22.3-30.3 33.1-54.1 10.9-23.7 16.5-40.4 19.4-60.9.6-7.1-3.3-9.9-4.3-10.3l-300.2-196.3c28.7 16.8 23 76.8-3.3 134.4s-69.9 100.9-99.6 90.3z" fill="#eaeaea"/><path clip-path="url(#b)" d="m-236.8 72.1c.2-10-8-18.2-18.1-18-9.5.2-17 8.3-17.2 17.9l-8.8 468.1c-.1 4.3 3.4 7.9 7.7 8l19.6.4c4.3.1 7.9-3.4 8-7.7z" fill="#434854"/><ellipse clip-path="url(#c)" cx="146.8" cy="125.9" fill="#4b5059" rx="123.6" ry="53" transform="matrix(.4163 -.9092 .9092 .4163 -28.847 206.9605)"/><g fill="#5b5b5b"><path clip-path="url(#d)" d="m473.4 193.2-31.9-20.8c-1.7 23-9 50.5-21.8 78.5s-28.9 51.5-45.2 67.8l36.7 10.6c15.3-17.5 29.4-39.1 40.6-63.7s18.4-49.3 21.6-72.4z"/><path clip-path="url(#e)" d="m377.7 130.7c.4 25-7 57.6-22.2 90.8s-35 60-54.2 76.1l37.7 10.9c18.4-18.8 35.4-43.5 48.6-72.3s20.7-57.8 23-84z"/><path clip-path="url(#f)" d="m312.5 88.2c3.9 26.1-3.2 64.6-21.2 103.9s-42.5 69.9-64.8 84l39.6 11.4c21.7-19.6 42.1-47.3 57.3-80.7s22.9-66.8 23.6-96.1z"/><path clip-path="url(#g)" d="m244 43.5c10.8 24.4 5 71.2-17 119.2s-53.7 83-79.2 90.7l44.3 12.8c25.3-19.7 49.5-50.5 67-88.8s25.1-76.7 23.4-108.8z"/><path clip-path="url(#h)" d="m23.1 95.3c-1.6.6 157-60.5 157.1-65.9.1-5-6.4-7.7-11.2-6.4l-142.7 60.5z"/><path clip-path="url(#i)" d="m26.3 83.5-8.8 1.5 72.6 131.6c3 3.8 8.6 4.4 12.4 1.4 3.8-3.1-76.2-134.5-76.2-134.5z"/><path d="m25.4 396h-4.6c-6.1 0-11-4.9-11-11v-308.4c0-6.1 4.9-11 11-11h4.6c6.1 0 11 4.9 11 11v308.4c0 6.1-4.9 11-11 11z"/><path d="m165 134.1c22.2-49.8 27.3-98.2 14.8-121.7 6.3-1.5 12.3-1.3 17.5.9 26.9 11.2 26.8 68.8-2 134.4-27.5 62.5-72 103.2-98.7 91.2-5.3-2.4-9.5-6.7-12.7-12.5 25.9-6.1 58.8-42.3 81.1-92.3z"/></g></svg>